<svg width="409" height="55" viewBox="0 0 409 55" fill="none" xmlns="http://www.w3.org/2000/svg">
<path d="M27.6395 10.4244C24.2524 10.8721 21.5684 13.75 21.5684 17.2994C21.5684 21.1047 24.6678 24.2384 28.5022 24.2384C32.3046 24.2384 35.4041 21.1047 35.4041 17.2994C35.4041 13.782 32.752 10.8721 29.333 10.4244C29.8123 10.7122 30.1318 11.2558 30.1318 11.8314C30.1318 12.7268 29.4288 13.4303 28.5022 13.4303C27.6075 13.4303 26.8726 12.7268 26.8726 11.8314C26.8406 11.2558 27.1602 10.7122 27.6395 10.4244Z" fill="white"/>
<path d="M27.096 26.6685C27.5434 27.436 28.5339 27.7238 29.3008 27.2441C30.0996 26.8284 30.3553 25.8052 29.9079 25.0377C29.4286 24.2383 28.47 23.9825 27.6712 24.4302C26.8724 24.9098 26.6167 25.9011 27.096 26.6685Z" fill="white"/>
<path d="M15.5614 34.279C17.6064 37.061 21.4727 37.8924 24.5402 36.1337C27.8314 34.247 28.9497 29.9941 27.0964 26.7005C25.1793 23.4069 20.9295 22.2558 17.6703 24.1744C14.6347 25.9331 13.3885 29.7063 14.7306 32.8401C14.7625 32.2965 15.0501 31.7848 15.5614 31.4651C16.3282 31.0174 17.3507 31.2732 17.7981 32.0406C18.2454 32.8401 17.9898 33.8313 17.2229 34.279C16.6797 34.5668 16.0407 34.5348 15.5614 34.279Z" fill="white"/>
<path d="M41.4115 34.279C39.3345 37.061 35.4682 37.8924 32.4007 36.1337C29.1095 34.247 27.9912 29.9941 29.8764 26.7005C31.7616 23.4069 36.0434 22.2558 39.3345 24.1744C42.402 25.9331 43.5523 29.7063 42.2103 32.8401C42.2103 32.2965 41.8908 31.7848 41.3795 31.4651C40.6127 31.0174 39.6221 31.2732 39.1428 32.0406C38.7274 32.8401 38.983 33.8313 39.7499 34.279C40.3251 34.5668 40.9002 34.5348 41.4115 34.279Z" fill="white"/>
<path d="M12.8134 47.1657C10.2891 47.1657 8.24414 45.1192 8.24414 42.593V11.4797C8.24414 8.95349 10.2891 6.90698 12.8134 6.90698H44.1594C46.6837 6.90698 48.7287 8.95349 48.7287 11.4797V42.593C48.7287 45.1192 46.6837 47.1657 44.1594 47.1657H12.8134ZM9.58617 42.593C9.58617 44.3837 11.056 45.8227 12.8134 45.8227H44.1594C45.9488 45.8227 47.4187 44.3837 47.4187 42.593V11.4797C47.4187 9.68896 45.9808 8.21803 44.1594 8.21803H12.8134C11.0241 8.21803 9.58617 9.65698 9.58617 11.4797V42.593Z" fill="white"/>
<path d="M84.9955 28.0116L93.463 30.5698C92.8879 32.936 91.9932 34.9506 90.779 36.5174C89.5648 38.1163 88.031 39.3314 86.2097 40.1308C84.3884 40.9302 82.0877 41.3459 79.2759 41.3459C75.8888 41.3459 73.1089 40.8663 70.9361 39.875C68.7952 38.8837 66.91 37.157 65.3443 34.6628C63.7786 32.1686 63.0117 28.9709 63.0117 25.1017C63.0117 19.9215 64.3857 15.9564 67.1337 13.1424C69.8816 10.3605 73.7799 8.95349 78.8285 8.95349C82.7587 8.95349 85.8582 9.75291 88.1269 11.3517C90.3955 12.9506 92.0571 15.3808 93.1435 18.7064L84.612 20.593C84.3244 19.6337 84.0049 18.9302 83.6854 18.5145C83.1422 17.7791 82.4712 17.2035 81.7043 16.8198C80.9374 16.436 80.0427 16.2122 79.0841 16.2122C76.8794 16.2122 75.2178 17.1076 74.0355 18.8663C73.1409 20.1773 72.7255 22.2238 72.7255 25.0378C72.7255 28.5233 73.2367 30.8895 74.2912 32.1686C75.3456 33.4477 76.8155 34.0872 78.7327 34.0872C80.5859 34.0872 81.9919 33.5756 82.9185 32.5204C83.8771 31.4971 84.5481 29.9942 84.9955 28.0116Z" fill="white"/>
<path d="M97.8726 9.52905H106.596V40.8343H97.8726V9.52905Z" fill="white"/>
<path d="M126.726 49.468V18.1628H134.874V21.5203C135.992 20.1133 137.015 19.154 137.974 18.6424C139.252 17.9709 140.658 17.6511 142.191 17.6511C145.227 17.6511 147.56 18.8023 149.221 21.1366C150.883 23.4709 151.713 26.3168 151.713 29.7383C151.713 33.5116 150.819 36.3895 148.997 38.3721C147.176 40.3546 144.907 41.3459 142.159 41.3459C140.817 41.3459 139.603 41.1221 138.485 40.6744C137.366 40.2267 136.408 39.5552 135.513 38.6598V49.5H126.726V49.468ZM135.449 29.5465C135.449 31.3372 135.833 32.6802 136.568 33.5436C137.335 34.4069 138.261 34.8546 139.443 34.8546C140.466 34.8546 141.297 34.4389 141.968 33.6075C142.639 32.7761 142.99 31.3691 142.99 29.3546C142.99 27.5319 142.639 26.1569 141.936 25.2936C141.233 24.4302 140.37 24.0145 139.348 24.0145C138.229 24.0145 137.303 24.4622 136.568 25.3255C135.801 26.1889 135.449 27.5959 135.449 29.5465Z" fill="white"/>
<path d="M163.76 25.4854L155.452 24.6221C155.772 23.1831 156.219 22.0319 156.794 21.2005C157.369 20.3691 158.232 19.6337 159.351 19.0261C160.149 18.5784 161.236 18.2587 162.642 18.0029C164.048 17.7471 165.549 17.6511 167.179 17.6511C169.767 17.6511 171.876 17.811 173.442 18.0988C175.008 18.3866 176.35 18.9941 177.404 19.9215C178.139 20.561 178.714 21.4564 179.161 22.6395C179.577 23.8226 179.801 24.9418 179.801 25.9971V36.0058C179.801 37.061 179.864 37.9244 179.992 38.5C180.12 39.1075 180.408 39.875 180.887 40.8023H172.739C172.419 40.2267 172.196 39.779 172.1 39.4593C172.004 39.1395 171.908 38.6598 171.812 38.0203C170.662 39.1075 169.544 39.9069 168.425 40.3546C166.891 40.9941 165.102 41.2819 163.057 41.2819C160.341 41.2819 158.296 40.6424 156.89 39.3953C155.484 38.1482 154.781 36.5814 154.781 34.7587C154.781 33.0319 155.293 31.625 156.283 30.5058C157.306 29.3866 159.159 28.5552 161.875 28.0436C165.134 27.404 167.243 26.9244 168.202 26.6686C169.16 26.4128 170.183 26.061 171.269 25.6453C171.269 24.5901 171.045 23.8226 170.598 23.4069C170.151 22.9912 169.384 22.7674 168.265 22.7674C166.828 22.7674 165.773 22.9912 165.07 23.4389C164.559 23.8546 164.112 24.5261 163.76 25.4854ZM171.301 30.0581C170.119 30.4738 168.873 30.8575 167.563 31.1773C165.805 31.6569 164.687 32.1046 164.207 32.5523C163.728 33.0319 163.473 33.5436 163.473 34.1511C163.473 34.8226 163.696 35.3982 164.175 35.8139C164.655 36.2616 165.358 36.4534 166.284 36.4534C167.243 36.4534 168.138 36.2296 169 35.75C169.831 35.2703 170.438 34.6947 170.758 34.0232C171.109 33.3517 171.269 32.4564 171.269 31.4011V30.0581H171.301Z" fill="white"/>
<path d="M185.009 18.1628H193.093V21.8721C194.307 20.3692 195.521 19.2819 196.768 18.6424C198.014 18.0029 199.516 17.6831 201.305 17.6831C203.701 17.6831 205.587 18.3866 206.961 19.8255C208.335 21.2645 209.006 23.4709 209.006 26.4447V40.8662H200.282V28.3953C200.282 26.9564 200.027 25.9651 199.484 25.3575C198.972 24.7819 198.205 24.4622 197.279 24.4622C196.224 24.4622 195.362 24.8459 194.723 25.6453C194.083 26.4447 193.732 27.8837 193.732 29.9302V40.8343H185.009V18.1628Z" fill="white"/>
<path d="M121.135 20.561H112.443V40.8343H121.135V20.561Z" fill="white"/>
<path d="M117.013 18.2268C119.536 18.2268 121.582 16.6233 121.582 14.6454C121.582 12.6674 119.536 11.064 117.013 11.064C114.489 11.064 112.443 12.6674 112.443 14.6454C112.443 16.6233 114.489 18.2268 117.013 18.2268Z" fill="white"/>
<path d="M214.853 9.52905H238.754V16.2442H224.567V21.7122H236.677V28.0436H224.567V40.8343H214.853V9.52905Z" fill="white"/>
<path d="M257.926 18.1628H266.01V21.8721C267.224 20.3692 268.438 19.2819 269.685 18.6424C270.931 18.0029 272.433 17.6831 274.222 17.6831C276.618 17.6831 278.504 18.3866 279.878 19.8255C281.252 21.2645 281.923 23.4709 281.923 26.4447V40.8662H273.199V28.3953C273.199 26.9564 272.944 25.9651 272.401 25.3575C271.889 24.7819 271.122 24.4622 270.196 24.4622C269.141 24.4622 268.279 24.8459 267.64 25.6453C267 26.4447 266.649 27.8837 266.649 29.9302V40.8343H257.958V18.1628H257.926Z" fill="white"/>
<path d="M295.023 25.4854L286.715 24.6221C287.035 23.1831 287.482 22.0319 288.057 21.2005C288.633 20.3691 289.495 19.6337 290.614 19.0261C291.413 18.5784 292.499 18.2587 293.905 18.0029C295.311 17.7471 296.813 17.6511 298.442 17.6511C301.03 17.6511 303.139 17.811 304.705 18.0988C306.271 18.3866 307.613 18.9941 308.667 19.9215C309.402 20.561 309.977 21.4564 310.425 22.6395C310.84 23.8226 311.064 24.9418 311.064 25.9971V36.0058C311.064 37.061 311.128 37.9244 311.255 38.5C311.383 39.1075 311.671 39.875 312.15 40.8023H304.002C303.683 40.2267 303.459 39.779 303.363 39.4593C303.267 39.1395 303.171 38.6598 303.075 38.0203C301.925 39.1075 300.807 39.9069 299.688 40.3546C298.155 40.9941 296.365 41.2819 294.32 41.2819C291.604 41.2819 289.559 40.6424 288.153 39.3953C286.747 38.1482 286.044 36.5814 286.044 34.7587C286.044 33.0319 286.556 31.625 287.546 30.5058C288.569 29.3866 290.422 28.5552 293.138 28.0436C296.397 27.404 298.506 26.9244 299.465 26.6686C300.423 26.4128 301.446 26.061 302.532 25.6453C302.532 24.5901 302.309 23.8226 301.861 23.4069C301.414 22.9912 300.647 22.7674 299.529 22.7674C298.091 22.7674 297.036 22.9912 296.333 23.4389C295.79 23.8546 295.343 24.5261 295.023 25.4854ZM302.564 30.0581C301.382 30.4738 300.136 30.8575 298.826 31.1773C297.068 31.6569 295.95 32.1046 295.471 32.5523C294.991 33.0319 294.736 33.5436 294.736 34.1511C294.736 34.8226 294.959 35.3982 295.439 35.8139C295.918 36.2616 296.621 36.4534 297.548 36.4534C298.506 36.4534 299.401 36.2296 300.264 35.75C301.094 35.2703 301.701 34.6947 302.021 34.0232C302.372 33.3517 302.532 32.4564 302.532 31.4011V30.0581H302.564Z" fill="white"/>
<path d="M316.24 18.1628H324.324V21.8721C325.539 20.3692 326.753 19.2819 327.999 18.6424C329.245 18.0029 330.747 17.6831 332.536 17.6831C334.933 17.6831 336.818 18.3866 338.192 19.8255C339.566 21.2645 340.237 23.4709 340.237 26.4447V40.8662H331.514V28.3953C331.514 26.9564 331.258 25.9651 330.715 25.3575C330.204 24.7819 329.437 24.4622 328.51 24.4622C327.456 24.4622 326.593 24.8459 325.954 25.6453C325.315 26.4447 324.963 27.8837 324.963 29.9302V40.8343H316.272V18.1628H316.24Z" fill="white"/>
<path d="M362.317 31.9447L370.592 32.8721C370.145 34.5988 369.378 36.1017 368.356 37.3488C367.301 38.5959 365.991 39.5872 364.362 40.2907C362.732 40.9941 360.687 41.3459 358.195 41.3459C355.798 41.3459 353.785 41.1221 352.187 40.6744C350.59 40.2267 349.216 39.4912 348.065 38.5C346.915 37.5087 346.02 36.3255 345.349 34.9825C344.71 33.6395 344.359 31.8488 344.359 29.6104C344.359 27.2761 344.742 25.3255 345.541 23.7907C346.116 22.6395 346.915 21.6162 347.938 20.7209C348.96 19.8255 349.983 19.154 351.069 18.7064C352.763 18.0029 354.935 17.6511 357.587 17.6511C361.294 17.6511 364.106 18.3226 366.055 19.6337C368.004 20.9447 369.346 22.8953 370.145 25.4534L361.965 26.5407C361.709 25.5814 361.23 24.8459 360.559 24.3662C359.888 23.8866 358.961 23.6308 357.843 23.6308C356.405 23.6308 355.255 24.1424 354.36 25.1657C353.466 26.1889 353.018 27.7558 353.018 29.8343C353.018 31.6889 353.466 33.0959 354.328 34.0872C355.223 35.0465 356.341 35.5261 357.715 35.5261C358.866 35.5261 359.824 35.2383 360.591 34.6628C361.358 34.0552 361.933 33.1598 362.317 31.9447Z" fill="white"/>
<path d="M399.734 31.6569H382.319C382.479 33.0639 382.862 34.0872 383.438 34.7907C384.268 35.7819 385.387 36.2616 386.729 36.2616C387.592 36.2616 388.39 36.0378 389.157 35.6221C389.637 35.3662 390.116 34.8866 390.659 34.1831L399.222 34.9825C397.912 37.2529 396.347 38.8837 394.493 39.875C392.64 40.8662 389.988 41.3459 386.537 41.3459C383.533 41.3459 381.169 40.9302 379.443 40.0668C377.718 39.2354 376.28 37.8604 375.162 36.0377C374.043 34.1831 373.468 32.0407 373.468 29.5465C373.468 25.9971 374.619 23.1191 376.887 20.9447C379.156 18.7383 382.287 17.6511 386.281 17.6511C389.541 17.6511 392.097 18.1308 393.95 19.1221C395.835 20.1133 397.273 21.5203 398.232 23.4069C399.222 25.2616 399.702 27.6918 399.702 30.6976V31.6569H399.734ZM390.883 27.468C390.723 25.7732 390.276 24.5901 389.541 23.8546C388.806 23.1191 387.847 22.7674 386.633 22.7674C385.259 22.7674 384.141 23.311 383.31 24.3982C382.799 25.0697 382.447 26.093 382.319 27.468H390.883Z" fill="white"/>
<path d="M251.599 20.561H242.908V40.8343H251.599V20.561Z" fill="white"/>
<path d="M247.477 18.2268C250.001 18.2268 252.046 16.6233 252.046 14.6454C252.046 12.6674 250.001 11.064 247.477 11.064C244.953 11.064 242.908 12.6674 242.908 14.6454C242.908 16.6233 244.953 18.2268 247.477 18.2268Z" fill="white"/>
<path d="M13.7397 42.8489V40.0349H14.7303C15.1137 40.0349 15.3694 40.0349 15.4652 40.0669C15.6569 40.0989 15.7847 40.1948 15.9126 40.3547C16.0404 40.4826 16.1043 40.6744 16.1043 40.8983C16.1043 41.0582 16.0723 41.2181 16.0084 41.346C15.9445 41.4739 15.8487 41.5698 15.7528 41.6337C15.6569 41.6977 15.5291 41.7297 15.4333 41.7617C15.2735 41.7936 15.0818 41.7936 14.7942 41.7936H14.3788V42.8489H13.7397ZM14.3788 40.5146V41.314H14.7303C14.9859 41.314 15.1457 41.314 15.2096 41.282C15.3054 41.25 15.3694 41.2181 15.4013 41.1541C15.4333 41.0901 15.4652 41.0262 15.4652 40.9303C15.4652 40.8343 15.4333 40.7384 15.3694 40.6744C15.3054 40.6105 15.2096 40.5785 15.1137 40.5465C15.0498 40.5465 14.8901 40.5146 14.6664 40.5146H14.3788Z" fill="white"/>
<path d="M19.076 42.8489H18.405L18.1494 42.2093H16.9352L16.6795 42.8489H15.9766L17.1588 40.0349H17.8298L19.076 42.8489ZM17.9257 41.7297L17.5103 40.6744L17.0949 41.7297H17.9257Z" fill="white"/>
<path d="M19.3955 42.8489V40.0349H20.0026L21.2488 41.9215V40.0349H21.8239V42.8489H21.2168L19.9707 41.0262V42.8489H19.3955Z" fill="white"/>
<path d="M22.4951 42.8489V40.0349H23.1022V42.8489H22.4951Z" fill="white"/>
<path d="M23.709 42.8489V40.0349H24.3161L25.5623 41.9215V40.0349H26.1374V42.8489H25.5303L24.2841 41.0262V42.8489H23.709Z" fill="white"/>
<path d="M29.4288 41.8256V41.346H30.7708V42.4651C30.643 42.5931 30.4513 42.689 30.1956 42.7849C29.94 42.8808 29.6844 42.9128 29.4607 42.9128C29.1412 42.9128 28.8536 42.8489 28.6299 42.721C28.4063 42.5931 28.2146 42.4332 28.0867 42.1774C27.9589 41.9535 27.895 41.6977 27.895 41.4419C27.895 41.1541 27.9589 40.8983 28.0867 40.6744C28.2146 40.4506 28.4063 40.2587 28.6619 40.1628C28.8536 40.0669 29.1092 40.0349 29.3968 40.0349C29.7803 40.0349 30.0678 40.0989 30.2915 40.2588C30.5152 40.4186 30.643 40.6105 30.7069 40.8663L30.0998 40.9622C30.0678 40.8343 29.972 40.7064 29.8442 40.6425C29.7163 40.5785 29.5885 40.5146 29.3968 40.5146C29.1412 40.5146 28.9175 40.5785 28.7578 40.7384C28.598 40.8983 28.5021 41.1221 28.5021 41.4419C28.5021 41.7617 28.598 42.0175 28.7578 42.2093C28.9175 42.3692 29.1412 42.4651 29.3968 42.4651C29.5246 42.4651 29.6524 42.4332 29.7803 42.4012C29.9081 42.3692 30.0359 42.3053 30.1317 42.2413V41.8896H29.4288V41.8256Z" fill="white"/>
<path d="M31.314 42.8489V40.0349H32.624C32.9436 40.0349 33.1992 40.0669 33.327 40.0989C33.4868 40.1628 33.5826 40.2268 33.6785 40.3547C33.7744 40.4826 33.8063 40.6425 33.8063 40.8024C33.8063 41.0262 33.7424 41.1861 33.6146 41.314C33.4868 41.4419 33.2631 41.5378 33.0075 41.5698C33.1353 41.6338 33.2631 41.7297 33.327 41.7936C33.4229 41.8896 33.5187 42.0175 33.6785 42.2413L34.0619 42.7849H33.327L32.8797 42.1774C32.7199 41.9535 32.624 41.8256 32.5601 41.7617C32.4962 41.6977 32.4323 41.6657 32.3684 41.6337C32.3045 41.6018 32.2087 41.6018 32.0489 41.6018H31.953V42.7849H31.314V42.8489ZM31.953 41.2181H32.4004C32.6879 41.2181 32.8797 41.2181 32.9436 41.1861C33.0075 41.1541 33.0714 41.1221 33.1033 41.0582C33.1353 40.9942 33.1672 40.9303 33.1672 40.8343C33.1672 40.7384 33.1353 40.6744 33.0714 40.6105C33.0075 40.5465 32.9436 40.5146 32.8477 40.5146C32.7838 40.5146 32.656 40.5146 32.4004 40.5146H31.953V41.2181Z" fill="white"/>
<path d="M34.2856 41.4739C34.2856 41.1861 34.3176 40.9622 34.4135 40.7384C34.4774 40.6105 34.5732 40.4506 34.701 40.3547C34.8288 40.2268 34.9567 40.1628 35.0845 40.0989C35.2762 40.0349 35.4999 40.0029 35.7555 40.0029C36.2028 40.0029 36.5863 40.1308 36.8419 40.3867C37.1295 40.6425 37.2573 40.9942 37.2573 41.4739C37.2573 41.9215 37.1295 42.2733 36.8419 42.5291C36.5863 42.7849 36.2028 42.9128 35.7555 42.9128C35.3081 42.9128 34.9247 42.7849 34.6691 42.5291C34.4454 42.2733 34.2856 41.9215 34.2856 41.4739ZM34.9247 41.4419C34.9247 41.7617 35.0206 42.0175 35.1803 42.1773C35.3401 42.3372 35.5318 42.4332 35.7874 42.4332C36.0431 42.4332 36.2348 42.3372 36.3946 42.1773C36.5543 42.0175 36.6182 41.7617 36.6182 41.4419C36.6182 41.1221 36.5543 40.8663 36.3946 40.7064C36.2348 40.5465 36.0431 40.4826 35.7874 40.4826C35.5318 40.4826 35.3401 40.5785 35.1803 40.7384C35.0206 40.8663 34.9247 41.1221 34.9247 41.4419Z" fill="white"/>
<path d="M37.7683 40.0349H38.3754V41.5698C38.3754 41.8256 38.3754 41.9535 38.4073 42.0494C38.4393 42.1774 38.5032 42.2413 38.5991 42.3372C38.6949 42.4012 38.8227 42.4332 39.0145 42.4332C39.2062 42.4332 39.334 42.4012 39.3979 42.3372C39.4938 42.2733 39.5257 42.1774 39.5577 42.0814C39.5896 41.9855 39.5896 41.8256 39.5896 41.6018V40.0349H40.1967V41.5058C40.1967 41.8576 40.1648 42.0814 40.1328 42.2093C40.1009 42.3372 40.037 42.4651 39.9411 42.5611C39.8452 42.657 39.7174 42.721 39.5896 42.7849C39.4298 42.8489 39.2381 42.8808 38.9825 42.8808C38.6949 42.8808 38.4713 42.8489 38.3115 42.7849C38.1517 42.721 38.0559 42.657 37.96 42.5291C37.8641 42.4332 37.8002 42.3372 37.8002 42.2093C37.7683 42.0494 37.7363 41.8256 37.7363 41.5058V40.0349H37.7683Z" fill="white"/>
<path d="M40.8682 42.8489V40.0349H41.8587C42.2421 40.0349 42.4978 40.0349 42.5936 40.0669C42.7854 40.0989 42.9132 40.1948 43.041 40.3547C43.1688 40.4826 43.2327 40.6744 43.2327 40.8983C43.2327 41.0582 43.2007 41.2181 43.1368 41.346C43.0729 41.4739 42.9771 41.5698 42.8812 41.6337C42.7854 41.6977 42.6575 41.7297 42.5617 41.7617C42.4019 41.7936 42.2102 41.7936 41.9226 41.7936H41.5072V42.8489H40.8682ZM41.4753 40.5146V41.314H41.8268C42.0824 41.314 42.2421 41.314 42.3061 41.282C42.4019 41.25 42.4658 41.2181 42.4978 41.1541C42.5297 41.0901 42.5617 41.0262 42.5617 40.9303C42.5617 40.8343 42.5297 40.7384 42.4658 40.6744C42.4019 40.6105 42.3061 40.5785 42.2102 40.5465C42.1463 40.5465 41.9865 40.5146 41.7629 40.5146H41.4753Z" fill="white"/>
</svg>
