<svg width="114" height="105" viewBox="0 0 114 105" fill="none" xmlns="http://www.w3.org/2000/svg">
<path d="M28.0106 0.507812C12.9804 0.507812 0.806641 12.7467 0.806641 27.8572C0.806641 32.9852 2.23485 37.8397 4.75121 41.9421C9.44389 49.8735 18.0811 55.2066 28.0106 55.2066C37.94 55.2066 46.5772 49.8735 51.2699 41.9421C53.7863 37.8397 55.2145 32.9852 55.2145 27.8572C55.2145 12.7467 43.0407 0.507812 28.0106 0.507812ZM38.144 32.8485H33.1113V38.1816C33.1113 40.9849 30.799 43.3096 28.0106 43.3096C25.2222 43.3096 22.9098 40.9849 22.9098 38.1816V32.8485H17.8771C15.0887 32.8485 12.7764 30.5238 12.7764 27.7205C12.7764 24.9171 15.0887 22.5924 17.8771 22.5924H22.9098V17.7379C22.9098 14.9346 25.2222 12.6099 28.0106 12.6099C30.799 12.6099 33.1113 14.9346 33.1113 17.7379V22.5924H38.144C40.9324 22.5924 43.2448 24.9171 43.2448 27.7205C43.2448 30.5238 41.0004 32.8485 38.144 32.8485Z" fill="#0038FF"/>
<path fill-rule="evenodd" clip-rule="evenodd" d="M61.4082 27.9579C61.4082 46.8139 46.1224 62.0997 27.2665 62.0997C21.6035 62.0997 16.2626 60.721 11.561 58.2809V93.5104C11.561 99.7959 16.6563 104.891 22.9416 104.891H102.606C108.891 104.891 113.986 99.7959 113.986 93.5104V36.6074C113.986 30.3221 108.891 25.2268 102.606 25.2268V19.4716C102.606 10.0203 93.5593 3.19671 84.4719 5.79319L58.1209 13.3221C59.728 16.704 60.7954 20.3921 61.2119 24.275L87.5982 16.7359L88.0513 16.6446C89.7047 16.4477 91.2252 17.7388 91.2252 19.4716V25.2268H61.3006C61.3719 26.1278 61.4082 27.0386 61.4082 27.9579ZM74.1667 64.595C74.1584 64.7486 74.1543 64.9033 74.1543 65.0589C74.1543 68.3417 76.0077 71.1917 78.7251 72.6196C80.5418 73.929 82.7721 74.7003 85.1825 74.7003C91.2886 74.7003 96.2386 69.7503 96.2386 63.6442V46.4781C96.2386 40.3719 91.2886 35.4219 85.1825 35.4219C79.0763 35.4219 74.1264 40.3719 74.1264 46.4781V63.6442C74.1264 63.9645 74.14 64.2816 74.1667 64.595Z" fill="#DA251D"/>
</svg>
