<svg width="105" height="102" viewBox="0 0 105 102" fill="none" xmlns="http://www.w3.org/2000/svg">
<path d="M81.847 55.9821C69.2031 55.9821 59.1528 66.0323 59.1528 78.6762C59.1528 91.3201 69.2031 101.37 81.847 101.37C94.4909 101.37 104.541 91.3201 104.541 78.6762C104.541 66.0323 94.4909 55.9821 81.847 55.9821ZM94.1667 78.0278L82.8196 81.9183C82.4954 81.9183 82.1712 81.9183 81.847 81.9183C81.1986 81.9183 80.5502 81.5941 79.9018 81.2699C79.2534 80.6214 78.605 79.6488 78.605 78.6762V65.7081C78.605 63.7629 79.9018 62.4661 81.847 62.4661C83.7922 62.4661 85.089 63.7629 85.089 65.7081V74.1374L92.2215 71.868C93.8425 71.2196 95.7877 72.1922 96.4361 73.8132C96.7603 75.4342 95.7877 77.3794 94.1667 78.0278Z" fill="#0038FF"/>
<path d="M52.7522 78.7664C52.7522 62.5634 65.6995 49.6011 81.8836 49.6011C85.4442 49.6011 88.681 50.2492 91.5941 51.2214V28.8613L98.0678 32.1019V46.3605C98.0678 48.3048 99.3625 49.6011 101.305 49.6011C103.247 49.6011 104.541 48.3048 104.541 46.3605V30.1575C104.541 28.8613 103.894 27.8891 102.599 27.241L91.5941 21.732V17.1951C91.5941 8.12149 84.4731 0.992188 75.41 0.992188H30.0944C21.0312 0.992188 13.9102 8.12149 13.9102 17.1951V21.732L2.90499 27.241C1.61026 27.8891 0.962891 28.8613 0.962891 30.1575V46.3605C0.962891 48.3048 2.25762 49.6011 4.19972 49.6011C6.14182 49.6011 7.43655 48.3048 7.43655 46.3605V32.1019L13.9102 28.8613V72.2852C13.9102 75.2017 15.2049 77.7942 17.147 79.4145V85.2476C17.147 90.7566 21.3549 94.9694 26.8575 94.9694H33.3312C38.8338 94.9694 43.0417 90.7566 43.0417 85.2476V82.007H53.0759C52.7522 81.0348 52.7522 79.7386 52.7522 78.7664ZM43.0417 66.4522C42.718 68.0724 41.4233 69.0446 39.8049 69.0446C39.4812 69.0446 39.1575 69.0446 39.1575 69.0446L26.2102 65.804C24.5918 65.48 23.297 63.5356 23.9444 61.9153C24.2681 60.295 26.2102 58.9988 27.8286 59.6469L40.7759 62.8875C42.3943 63.2116 43.3654 64.8319 43.0417 66.4522ZM20.3839 44.0921V17.1951C20.3839 11.6861 24.5917 7.47337 30.0944 7.47337H75.41C80.9126 7.47337 85.1205 11.6861 85.1205 17.1951V44.0921C64.0811 51.2214 41.4233 51.2214 20.3839 44.0921Z" fill="#13C296"/>
</svg>
