<svg width="101" height="94" viewBox="0 0 101 94" fill="none" xmlns="http://www.w3.org/2000/svg">
<path fill-rule="evenodd" clip-rule="evenodd" d="M7.57966 34.1606H7.01331C4.9311 34.1606 3.54297 35.5539 3.54297 37.6438C3.54297 39.7337 4.9311 41.1269 7.01331 41.1269H10.4836C6.31924 44.2618 3.54297 49.4865 3.54297 55.0595V68.9922C3.54297 72.127 4.9311 74.9135 7.01331 76.6551V82.9248C7.01331 88.8461 11.5248 93.3742 17.4243 93.3742H24.365C30.2646 93.3742 34.776 88.8461 34.776 82.9248V79.4416H69.4794V82.9248C69.4794 88.8461 73.9909 93.3742 79.8905 93.3742H86.8311C92.7307 93.3742 97.2422 88.8461 97.2422 82.9248V76.6551C99.3244 74.9135 100.713 72.127 100.713 68.9922V55.0595C100.713 49.4865 97.9362 44.2618 93.7718 41.1269H97.2422C99.3244 41.1269 100.713 39.7337 100.713 37.6438C100.713 35.5539 99.3244 34.1606 97.2422 34.1606H87.5252L83.3608 23.7112C81.2536 18.5747 76.7961 15.0108 71.3476 13.7015H57.9066C57.9359 15.9129 57.603 18.1334 56.9221 20.228H66.0091H67.3972C71.5616 20.228 75.379 22.6662 77.1142 26.4977L81.9727 37.6438H42.5059L29.7276 50.8486C28.8706 51.7042 27.5851 52.132 26.7281 52.132C25.8711 52.132 24.5855 51.7042 23.7285 50.8486L7.57966 34.1606ZM17.4243 62.0258C15.3421 62.0258 13.954 60.6326 13.954 58.5427C13.954 56.4528 15.3421 55.0595 17.4243 55.0595H27.8354C29.9176 55.0595 31.3057 56.4528 31.3057 58.5427C31.3057 60.6326 29.9176 62.0258 27.8354 62.0258H17.4243ZM32.6938 72.4753L36.8582 64.4641C38.5934 60.9809 42.0637 58.5427 46.2282 58.5427H58.3743C62.1917 58.5427 66.0091 60.6326 67.7443 64.4641L71.9087 72.4753H32.6938ZM86.8311 62.0258H76.4201C74.3379 62.0258 72.9498 60.6326 72.9498 58.5427C72.9498 56.4528 74.3379 55.0595 76.4201 55.0595H86.8311C88.9133 55.0595 90.3015 56.4528 90.3015 58.5427C90.3015 60.6326 88.9133 62.0258 86.8311 62.0258Z" fill="#0071B6"/>
<path d="M48.1071 4.45645C45.6853 1.66322 42.2256 0.266602 38.7658 0.266602C35.3061 0.266602 31.8463 1.66322 29.4245 4.45645L26.3107 7.948L23.1969 4.45645C20.7751 1.66322 17.3154 0.266602 13.8556 0.266602C10.3959 0.266602 6.93611 1.66322 4.51429 4.45645C-0.675335 9.69377 -0.675335 18.4226 4.51429 24.0091L24.2349 44.6092C24.9268 45.3075 25.9647 45.6566 26.6567 45.6566C27.3486 45.6566 28.3866 45.3075 29.0785 44.6092L48.7991 24.0091C52.9508 18.4226 52.9508 9.69377 48.1071 4.45645Z" fill="#0038FF"/>
</svg>
