<svg width="119" height="100" viewBox="0 0 119 100" fill="none" xmlns="http://www.w3.org/2000/svg">
<path d="M31.2 63.5652L35.6571 54.9652C37.5143 51.2261 41.2286 48.6087 45.6857 48.6087H58.6857C59.0571 48.6087 59.4286 48.6087 59.4286 48.6087C66.1143 39.6348 76.8857 33.6522 89.1429 33.6522C93.6 33.6522 97.6857 34.4 101.771 35.8957C100.286 33.6522 98.4286 31.4087 96.5714 29.913H100.286C102.514 29.913 104 28.4174 104 26.1739C104 23.9304 102.514 22.4348 100.286 22.4348H89.8857L85.4286 11.2174C82.4571 4.48696 75.7714 0 68.3429 0H35.6571C28.2286 0 21.5429 4.48696 18.5714 11.2174L13.7429 22.4348H3.71429C1.48571 22.4348 0 23.9304 0 26.1739C0 28.4174 1.48571 29.913 3.71429 29.913H7.42857C2.97143 33.2783 0 38.887 0 44.8696V59.8261C0 63.1913 1.48571 66.1826 3.71429 68.0522V74.7826C3.71429 81.1391 8.54286 86 14.8571 86H22.2857C28.6 86 33.4286 81.1391 33.4286 74.7826V71.0435H52C52 68.4261 52.3714 65.8087 52.7429 63.5652H31.2ZM26 52.3478H14.8571C12.6286 52.3478 11.1429 50.8522 11.1429 48.6087C11.1429 46.3652 12.6286 44.8696 14.8571 44.8696H26C28.2286 44.8696 29.7143 46.3652 29.7143 48.6087C29.7143 50.8522 28.2286 52.3478 26 52.3478ZM20.4286 26.1739L25.6286 14.2087C27.4857 10.0957 31.2 7.47826 35.6571 7.47826H67.9714C72.4286 7.47826 76.5143 10.0957 78.3714 14.2087L83.5714 26.1739H20.4286Z" fill="#FFC700"/>
<path d="M117.509 63.2114C117.137 61.357 114.901 60.2444 113.037 60.6153C110.429 61.357 108.565 60.6153 108.193 59.8735C107.82 59.1317 108.193 57.2773 110.056 55.052C111.547 53.5685 111.547 51.3432 110.056 49.8596C106.329 46.1508 101.857 43.5546 96.6398 42.0711C94.7764 41.7002 92.5404 42.8128 92.1677 44.6672C91.4224 47.2634 89.9317 48.3761 88.8137 48.3761C87.6957 48.3761 86.5776 46.8925 85.4596 44.6672C84.7143 42.8128 82.8509 41.7002 80.9876 42.0711C75.7702 43.5546 71.2981 46.1508 67.5714 49.8596C66.0807 51.3432 66.0807 53.5685 67.5714 55.052C69.4348 56.9064 69.8075 58.7608 69.4348 59.8735C69.0621 60.6153 67.1988 61.357 64.5901 60.6153C62.7267 60.2444 60.4907 61.357 60.118 63.2114C59.3727 65.8076 59 68.4038 59 71C59 73.5962 59.3727 76.1924 60.118 78.7886C60.4907 80.643 62.7267 81.7556 64.5901 81.3847C67.1988 80.643 69.0621 81.3847 69.4348 82.1265C69.8075 82.8683 69.4348 84.7227 67.5714 86.948C66.0807 88.4315 66.0807 90.6568 67.5714 92.1404C71.2981 95.8492 75.7702 98.4454 80.9876 99.9289C82.8509 100.3 85.087 99.1872 85.4596 97.3328C86.205 94.7366 87.6957 93.6239 88.8137 93.6239C89.9317 93.6239 91.0497 95.1075 92.1677 97.3328C92.5404 98.8163 94.0311 99.9289 95.8944 99.9289C96.2671 99.9289 96.6398 99.9289 97.0124 99.9289C102.23 98.4454 106.702 95.8492 110.429 92.1404C111.919 90.6568 111.919 88.4315 110.429 86.948C108.565 85.0936 108.193 83.2392 108.565 82.1265C108.938 81.3847 110.801 80.643 113.41 81.3847C115.273 81.7556 117.509 80.643 117.882 78.7886C118.627 76.1924 119 73.5962 119 71C119 68.4038 118.255 65.8076 117.509 63.2114ZM88.8137 82.1265C82.4783 82.1265 77.6335 77.305 77.6335 71C77.6335 64.695 82.4783 59.8735 88.8137 59.8735C95.1491 59.8735 99.9938 64.695 99.9938 71C99.9938 77.305 95.1491 82.1265 88.8137 82.1265Z" fill="#0038FF"/>
</svg>
